P1
# Un exemple de fichier pbm
5 3
1 1 1 
1 0 0 
1 1 1 
0 0 1 
1 1 1 
